<svg xmlns="http://www.w3.org/2000/svg" viewBox="0 0 274.7377 42.3995"><defs><style>.a{fill:#152a6d;}</style></defs><title>logo</title><path class="a" d="M53.6526,29.2053a12.9151,12.9151,0,0,0,6.5343,1.843c3.7282,0,5.9061-1.9688,5.9061-4.817,0-2.639-1.5079-4.1469-5.32-5.6129-4.6076-1.6336-7.4559-4.0212-7.4559-8.0005,0-4.3982,3.6445-7.6654,9.1315-7.6654A12.8278,12.8278,0,0,1,68.69,6.3349L67.685,9.3089a11.245,11.245,0,0,0-5.3615-1.34c-3.854,0-5.32,2.3038-5.32,4.2306,0,2.6389,1.7174,3.9373,5.6128,5.4453,4.7751,1.843,7.2047,4.1468,7.2047,8.2935,0,4.3564-3.2254,8.1261-9.8855,8.1261a14.5927,14.5927,0,0,1-7.2047-1.8009Z"/><path class="a" d="M84.2729,7.6753a2.283,2.283,0,0,1-4.5658,0,2.246,2.246,0,0,1,2.3038-2.3038A2.188,2.188,0,0,1,84.2729,7.6753Zm-4.1052,25.97V13.3718h3.686V33.6452Z"/><path class="a" d="M95.457,18.8592c0-2.0944-.0422-3.8118-.1676-5.4874h3.2253l.1677,3.2672h.1253a6.9879,6.9879,0,0,1,6.3668-3.728,5.9929,5.9929,0,0,1,5.7385,4.0632h.084a8.3481,8.3481,0,0,1,2.262-2.639,6.9186,6.9186,0,0,1,4.4817-1.4242c2.6808,0,6.66,1.7594,6.66,8.7964V33.6452h-3.6024V22.1682c0-3.8956-1.424-6.2412-4.3981-6.2412a4.7725,4.7725,0,0,0-4.3564,3.351,6.0684,6.0684,0,0,0-.293,1.843V33.6452h-3.6024V21.498c0-3.2254-1.4239-5.571-4.2305-5.571a5.0369,5.0369,0,0,0-4.5658,3.686,5.0825,5.0825,0,0,0-.293,1.8012v12.231H95.457Z"/><path class="a" d="M153.3882,3.9053v24.504c0,1.8012.0418,3.8538.1676,5.2359h-3.3093l-.1676-3.5185h-.0836a7.4993,7.4993,0,0,1-6.9114,3.9793c-4.9009,0-8.6705-4.1469-8.6705-10.3043-.0422-6.7437,4.1466-10.8907,9.0893-10.8907a6.7789,6.7789,0,0,1,6.1156,3.1h.0836V3.9053Zm-3.6863,17.7183a6.5206,6.5206,0,0,0-.1672-1.55,5.4214,5.4214,0,0,0-5.32-4.2724c-3.8117,0-6.0737,3.351-6.0737,7.8327,0,4.105,2.0108,7.498,5.99,7.498a5.5417,5.5417,0,0,0,5.4038-4.3982,6.4161,6.4161,0,0,0,.1672-1.5918Z"/><path class="a" d="M167.0441,24.1787c.0836,4.9846,3.2672,7.0372,6.9531,7.0372a13.3286,13.3286,0,0,0,5.6128-1.0472l.6286,2.6387a16.4231,16.4231,0,0,1-6.7442,1.2566c-6.2409,0-9.9686-4.1049-9.9686-10.22s3.6019-10.9327,9.5081-10.9327c6.6183,0,8.3775,5.8224,8.3775,9.55a13.9142,13.9142,0,0,1-.1258,1.7173ZM177.8508,21.54c.0418-2.3458-.9634-5.99-5.11-5.99-3.7278,0-5.3612,3.4348-5.6546,5.99Z"/><path class="a" d="M190.9621,29.8755a9.6621,9.6621,0,0,0,4.8592,1.466c2.6807,0,3.9371-1.34,3.9371-3.016,0-1.7592-1.047-2.7226-3.7695-3.728-3.6442-1.2984-5.3616-3.3089-5.3616-5.7383,0-3.2674,2.6386-5.9482,6.9949-5.9482a10.1186,10.1186,0,0,1,4.9846,1.2568l-.9216,2.6808a7.8872,7.8872,0,0,0-4.1466-1.173c-2.1784,0-3.3929,1.2566-3.3929,2.7646,0,1.6756,1.2145,2.43,3.8535,3.4348,3.5184,1.34,5.32,3.0995,5.32,6.1155,0,3.56-2.7648,6.0735-7.5818,6.0735a11.56,11.56,0,0,1-5.6963-1.3822Z"/><path class="a" d="M217.6448,7.6753a2.2827,2.2827,0,0,1-4.5653,0,2.246,2.246,0,0,1,2.3038-2.3038A2.1876,2.1876,0,0,1,217.6448,7.6753Zm-4.1047,25.97V13.3718h3.686V33.6452Z"/><path class="a" d="M246.2958,13.3718c-.0836,1.4662-.1676,3.1-.1676,5.571v11.77c0,4.65-.9212,7.4979-2.89,9.2571A10.7473,10.7473,0,0,1,235.8661,42.4a13.0856,13.0856,0,0,1-6.7438-1.6753l.9212-2.8064a11.4336,11.4336,0,0,0,5.948,1.5916c3.77,0,6.5347-1.9686,6.5347-7.079V30.1687h-.084a7.2375,7.2375,0,0,1-6.4507,3.3927c-5.0264,0-8.6288-4.2723-8.6288-9.8853,0-6.87,4.4822-10.7651,9.1316-10.7651a6.7436,6.7436,0,0,1,6.3249,3.5186h.0836l.1676-3.0578Zm-3.8118,8.0006a5.249,5.249,0,0,0-.2094-1.6756,5.31,5.31,0,0,0-5.1522-3.8954c-3.5183,0-6.0315,2.974-6.0315,7.6653,0,3.9792,2.01,7.2884,5.99,7.2884a5.3886,5.3886,0,0,0,5.11-3.77,6.4131,6.4131,0,0,0,.293-1.9686Z"/><path class="a" d="M257.48,18.8592c0-2.0944-.0418-3.8118-.1676-5.4874H260.58l.2094,3.351h.084a7.4549,7.4549,0,0,1,6.702-3.8118c2.8061,0,7.1625,1.6756,7.1625,8.629V33.6452h-3.686V21.9588c0-3.2672-1.2146-5.99-4.6915-5.99a5.2367,5.2367,0,0,0-4.9424,3.77,5.2983,5.2983,0,0,0-.2516,1.7174v12.189H257.48Z"/><path class="a" d="M23.4878,19.6778a5.5131,5.5131,0,0,0-7.54,0Z"/><path class="a" d="M14.7593,3.087a5.4858,5.4858,0,0,0-.5042,1.5966H25.1807a5.4858,5.4858,0,0,0-.5042-1.5966Z"/><path class="a" d="M14.2389,6.28a5.4871,5.4871,0,0,0,.4692,1.5966h10.02A5.49,5.49,0,0,0,25.1969,6.28Z"/><path class="a" d="M23.4878,1.49a5.5131,5.5131,0,0,0-7.54,0Z"/><path class="a" d="M15.8311,9.4734a5.5294,5.5294,0,0,0,7.7736,0Z"/><path class="a" d="M19.6777,16.7153a61.55,61.55,0,0,1,12.43,1.148,14.1267,14.1267,0,0,1,5.0652,1.8145,14.1275,14.1275,0,0,1-5.0652,1.8144,61.55,61.55,0,0,1-12.43,1.148,61.5494,61.5494,0,0,1-12.43-1.148,14.1266,14.1266,0,0,1-5.0652-1.8144,14.1258,14.1258,0,0,1,5.0652-1.8145,61.5494,61.5494,0,0,1,12.43-1.148m0-1.957C8.81,14.7583,0,16.9608,0,19.6778s8.81,4.9194,19.6777,4.9194,19.6778-2.2025,19.6778-4.9194-8.81-4.92-19.6778-4.92Z"/><circle class="a" cx="19.6778" cy="33.8205" r="5.535"/></svg>