<svg xmlns="http://www.w3.org/2000/svg" viewBox="0 0 40.0391 38.1765"><defs><style>.a{fill:#fff;}</style></defs><title>case</title><path class="a" d="M33.6516,7.6216H30.8063V4.8449A4.8474,4.8474,0,0,0,25.9614,0H14.0777A4.8474,4.8474,0,0,0,9.2328,4.8449V7.633H6.3875A6.3836,6.3836,0,0,0,0,14.0205V31.789a6.3981,6.3981,0,0,0,6.3875,6.3875H33.6516a6.3981,6.3981,0,0,0,6.3875-6.3875V14.0205A6.4006,6.4006,0,0,0,33.6516,7.6216ZM11.29,4.8449a2.7918,2.7918,0,0,1,2.7881-2.7881H25.9614A2.7918,2.7918,0,0,1,28.75,4.8449V7.633H11.29ZM37.9823,31.7776a4.3353,4.3353,0,0,1-4.3307,4.3307H6.3875a4.3353,4.3353,0,0,1-4.3307-4.3307V14.0205A4.3354,4.3354,0,0,1,6.3875,9.69H33.6516a4.3354,4.3354,0,0,1,4.3307,4.3307V31.7776ZM26.8641,19.0026H23.916V16.0545a2.1164,2.1164,0,0,0-2.1139-2.1139H18.2484a2.1164,2.1164,0,0,0-2.1139,2.1139v2.9481H13.1864a2.1164,2.1164,0,0,0-2.1139,2.1139V24.67a2.1164,2.1164,0,0,0,2.1139,2.1139h2.9481v2.9481a2.1165,2.1165,0,0,0,2.1139,2.114h3.5537a2.1165,2.1165,0,0,0,2.1139-2.114V26.7841h2.9481a2.1165,2.1165,0,0,0,2.114-2.1139V21.1165A2.1165,2.1165,0,0,0,26.8641,19.0026Zm.0572,5.679a.0541.0541,0,0,1-.0572.0572H22.8876a1.0241,1.0241,0,0,0-1.0284,1.0284v3.9765a.054.054,0,0,1-.0571.0571H18.2484a.054.054,0,0,1-.0571-.0571V25.7672a1.0241,1.0241,0,0,0-1.0284-1.0284H13.1864a.0612.0612,0,0,1-.0571-.0572V21.1165a.0539.0539,0,0,1,.0571-.0571h3.9765a1.0242,1.0242,0,0,0,1.0284-1.0284V16.0545a.0612.0612,0,0,1,.0571-.0571h3.5537a.0539.0539,0,0,1,.0571.0571V20.031a1.0242,1.0242,0,0,0,1.0284,1.0284h3.9765a.054.054,0,0,1,.0572.0571Z"/></svg>