<svg xmlns="http://www.w3.org/2000/svg" viewBox="0 0 44.4615 35.1657"><defs><style>.a{fill:#fff;}</style></defs><title>heart</title><path class="a" d="M44.4615,11.9416a10.79,10.79,0,0,1-.6149,3.6894c-1.892,8.5612-18.21,18.8725-18.92,19.3455a1.4249,1.4249,0,0,1-1.419,0,97.5882,97.5882,0,0,1-9.46-7,1.2909,1.2909,0,0,1-.1419-1.8446,1.3444,1.3444,0,0,1,1.892-.1419,87.4747,87.4747,0,0,0,8.4666,6.3381C29.1838,29.1113,40.0153,20.9758,41.34,15.0161a9.8872,9.8872,0,0,0,.52-2.98,9.3519,9.3519,0,0,0-4.8245-8.1828,9.5553,9.5553,0,0,0-11.73,2.2231,1.3518,1.3518,0,0,1-2.0339,0,9.5551,9.5551,0,0,0-11.73-2.2231,8.9952,8.9952,0,0,0-4.8719,8.0882,8.5843,8.5843,0,0,0,.473,2.8853,9.9728,9.9728,0,0,0,1.0406,2.6015H15.94l2.6488-6.1017a1.3411,1.3411,0,0,1,1.3244-.8041,1.3691,1.3691,0,0,1,1.1825.9933l1.9392,8.2774,2.5069-4.115a1.3307,1.3307,0,0,1,1.1352-.6149h4.8245a1.3244,1.3244,0,1,1,0,2.6488H27.4337l-3.8313,6.2435a1.3307,1.3307,0,0,1-1.1352.6149H22.278a1.377,1.377,0,0,1-1.0879-.9933l-1.7973-7.5679-1.419,3.2636a1.3552,1.3552,0,0,1-1.23.8041H1.3244a1.3244,1.3244,0,1,1,0-2.6487H5.2029a7.9992,7.9992,0,0,1-.6149-1.892,11.0184,11.0184,0,0,1-.5675-3.5948,11.9612,11.9612,0,0,1,6.1962-10.5,12.2407,12.2407,0,0,1,14.0006,1.75,12.2508,12.2508,0,0,1,14.0007-1.75A11.8574,11.8574,0,0,1,44.4615,11.9416Z"/></svg>