<svg xmlns="http://www.w3.org/2000/svg" viewBox="0 0 40.8279 35.0906"><defs><style>.a{fill:#fff;}</style></defs><title>lung</title><path class="a" d="M17.977,19.42V31.79A3.117,3.117,0,0,1,15.07,35.08H8.2618a7.2414,7.2414,0,0,1-6.3931-3.4206A14.1915,14.1915,0,0,1,0,23.9984,30.9118,30.9118,0,0,1,4.12,9.1032C7.0924,4,10.9829,1.1912,15.07,1.1912a3.1242,3.1242,0,0,1,2.907,3.2894V7.8574a1.0929,1.0929,0,0,1-2.1857,0V4.47c0-.6339-.3825-1.1038-.7213-1.1038-4.4259,0-7.5732,4.2729-9.0595,6.83A29.03,29.03,0,0,0,2.1856,23.9875a12.1347,12.1347,0,0,0,1.5191,6.4914,5.1022,5.1022,0,0,0,4.557,2.4151H15.07c.3388,0,.7213-.47.7213-1.1037V19.42a1.0929,1.0929,0,0,1,2.1857,0ZM36.708,9.1032C33.7355,4,29.845,1.1912,25.7579,1.1912A3.1242,3.1242,0,0,0,22.851,4.4806v3.42a1.0928,1.0928,0,0,0,2.1856,0V4.47c0-.6339.3825-1.1038.7213-1.1038,4.4259,0,7.5732,4.2729,9.06,6.83a29.03,29.03,0,0,1,3.8249,13.7915,12.1347,12.1347,0,0,1-1.5191,6.4914,5.1022,5.1022,0,0,1-4.557,2.4151H25.7579c-.3388,0-.7213-.47-.7213-1.1037V19.2665a1.0928,1.0928,0,0,0-2.1856,0V31.8012a3.1169,3.1169,0,0,0,2.9069,3.2894h6.8083a7.2413,7.2413,0,0,0,6.393-3.4206,14.2054,14.2054,0,0,0,1.8687-7.6716A30.9118,30.9118,0,0,0,36.708,9.1032ZM26.5338,22.3592a1.0928,1.0928,0,0,0,2.1856,0V19.1681l2.8741,1.3661a1.09,1.09,0,0,0,.94-1.9671l-4.2511-2.0217L21.5068,9.2671V1.0928a1.0929,1.0929,0,0,0-2.1857,0V9.2671l-6.7755,7.2783L8.2945,18.5671a1.09,1.09,0,0,0,.94,1.9671l2.8741-1.3661v3.1911a1.0928,1.0928,0,0,0,2.1856,0V17.8677l6.12-6.5679,6.12,6.5679v4.4915Z"/></svg>