<svg xmlns="http://www.w3.org/2000/svg" viewBox="0 0 31.2503 42.2964"><defs><style>.a{fill:#fff;}</style></defs><title>micro</title><path class="a" d="M30.2765,40.3682H28.5041V36.2489a.9767.9767,0,0,0-.9739-.9738H24.3361v-3.37A15.0825,15.0825,0,0,0,31.25,19.2166,15.11,15.11,0,0,0,24.7548,6.81l.4383-.633.2045.1461a.9725.9725,0,0,0,1.11-1.5971l-1.003-.7012h-.01L21.0348.8793h0L20.0317.1782a.9617.9617,0,0,0-1.3536.2434.9618.9618,0,0,0,.2435,1.3537l.2045.146-1.899,2.717-.2045-.1461a.9725.9725,0,0,0-1.11,1.5971l.2045.1461-5.97,8.521a1.0245,1.0245,0,0,0-.1655.73.97.97,0,0,0,.3993.633l4.48,3.1357a.9614.9614,0,0,0,.5551.1753.8607.8607,0,0,0,.1655-.0194,1.0087,1.0087,0,0,0,.633-.3993l4.5381-6.4857a8.1269,8.1269,0,0,1,3.5155,6.6805,7.9723,7.9723,0,0,1-1.49,4.6744h-4.129a.9766.9766,0,0,0-.9738.9738v2.3177a7.9767,7.9767,0,0,1-1.529.1461,8.0687,8.0687,0,0,1-6.4272-3.1552H14.997a.9739.9739,0,1,0,0-1.9477H.9738a.9739.9739,0,0,0,0,1.9477h.9154a15.2633,15.2633,0,0,0,5.1321,7.07,14.9772,14.9772,0,0,0,9.1248,3.0676c.5064,0,1.0226-.0293,1.529-.0779v1.0322H4.7718a.9768.9768,0,0,0-.9739.9739v4.1193H2.0256a.9738.9738,0,1,0,0,1.9476H30.2667a.9766.9766,0,0,0,.9738-.9738A.9518.9518,0,0,0,30.2765,40.3682ZM20.7134,3.0412,23.596,5.0668,22.5734,6.5276h0L21.697,7.7838,18.8144,5.7485ZM15.1723,17.0936,12.29,15.0778l5.4145-7.7322,2.8825,2.0255Zm6.7-6.1546.3116-.4479.2045.146a.9725.9725,0,0,0,1.11-1.5971l-.2045-.146.3408-.4869A13.1524,13.1524,0,0,1,24.3263,29.51V25.0693a10.0648,10.0648,0,0,0-2.454-14.13ZM16.1461,32.3633a13.2371,13.2371,0,0,1-12.1826-8.19H7.3914a10.061,10.061,0,0,0,10.2837,4.986v3.1163A13.2928,13.2928,0,0,1,16.1461,32.3633Zm3.4766.76V25.8387h2.7657v9.4267H19.6227Zm-13.8771,4.1H26.5564v3.1454H5.7456Z"/></svg>