<svg xmlns="http://www.w3.org/2000/svg" viewBox="0 0 27.0066 43.2106"><defs><style>.a{fill:#fff;}</style></defs><title>pill</title><path class="a" d="M24.2975,12.6H21.5969V8.9966a.9041.9041,0,0,0-.9031-.903H18.8962V6.3044h2.7007a.9041.9041,0,0,0,.903-.9031V1.7976A1.7991,1.7991,0,0,0,20.7023,0H6.2959A1.7991,1.7991,0,0,0,4.4983,1.7976V5.4013a.9041.9041,0,0,0,.903.9031H8.102V8.102H6.3044a.9041.9041,0,0,0-.9031.903v3.6037H2.7007A2.6978,2.6978,0,0,0,0,15.3094V40.51a2.6977,2.6977,0,0,0,2.7007,2.7006H24.306A2.6977,2.6977,0,0,0,27.0066,40.51V15.301A2.7158,2.7158,0,0,0,24.2975,12.6ZM6.2959,1.7976H20.7023V4.4983H6.2959ZM9.8912,6.3044H17.09V8.102H9.8912ZM25.2006,40.51a.9041.9041,0,0,1-.9031.903H2.6922a.904.904,0,0,1-.903-.903V15.301a.9041.9041,0,0,1,.903-.9031H15.301V12.6H7.199V9.9h12.6v3.6037a.9041.9041,0,0,0,.9031.9031h3.5952a.9041.9041,0,0,1,.9031.903Z"/><rect class="a" x="3.5953" y="18.0016" width="19.8077" height="1.7976"/><rect class="a" x="3.5953" y="36.0117" width="19.8077" height="1.7976"/><path class="a" d="M18.8962,25.209H16.1955V22.5084a.904.904,0,0,0-.903-.9031H11.6888a.9041.9041,0,0,0-.903.9031V25.209H8.0851a.9041.9041,0,0,0-.903.9031v3.5952a.904.904,0,0,0,.903.903h2.7007V33.311a.904.904,0,0,0,.903.903h3.6037a.904.904,0,0,0,.903-.903V30.61h2.7007a.904.904,0,0,0,.903-.903V26.1036A.8969.8969,0,0,0,18.8962,25.209Zm-.903,3.5953H15.2925a.904.904,0,0,0-.903.903V32.408H12.5918V29.7073a.904.904,0,0,0-.903-.903H8.9881V27.0066h2.7007a.904.904,0,0,0,.903-.903V23.4029H14.39v2.7007a.904.904,0,0,0,.903.903h2.7007Z"/><path class="a" d="M4.49,21.6053a.9041.9041,0,0,0-.9031.9031V25.209H5.3929V23.4114H7.1905V21.6053Z"/><path class="a" d="M21.5969,30.61V32.408H19.7992v1.7976H22.5a.904.904,0,0,0,.903-.903V30.6019l-1.806.0084Z"/></svg>