<svg xmlns="http://www.w3.org/2000/svg" viewBox="0 0 41.2106 41.2106"><defs><style>.a{fill:#fff;}</style></defs><title>symbol</title><path class="a" d="M40.5238,0H28.8474a4.1221,4.1221,0,0,0-4.121,4.1211A2.7451,2.7451,0,0,1,22.6658,6.774V4.5675a2.7464,2.7464,0,1,0-4.121,0V6.774a2.7375,2.7375,0,0,1-2.06-2.6529A4.1222,4.1222,0,0,0,12.3632,0H.6868A.6889.6889,0,0,0,0,.6868a4.1169,4.1169,0,0,0,3.4857,4.07A4.1178,4.1178,0,0,0,6.92,8.1906,4.1233,4.1233,0,0,0,10.99,11.6763h7.5553V21.979H13.05a2.0606,2.0606,0,0,1,0-4.1211h3.4343a.6888.6888,0,0,0,.6868-.6868V15.7974a.6953.6953,0,0,0-.1975-.4894l-2.0605-2.06a.6953.6953,0,0,0-.4894-.1975H13.05a6.867,6.867,0,0,0-1.8373,13.4793,6.1613,6.1613,0,0,0,3.5716,7.3321,5.6251,5.6251,0,0,0-.206,1.5111,5.8439,5.8439,0,0,0,5.6063,5.8381h.4207a5.8278,5.8278,0,0,0,5.34-7.1517,6.1766,6.1766,0,0,0,4.061-7.5038,6.8687,6.8687,0,0,0-1.8459-13.4965H26.7869a.6953.6953,0,0,0-.4894.1975l-2.0605,2.06a.6953.6953,0,0,0-.1975.4894V17.18a.6889.6889,0,0,0,.6869.6868h3.4342a2.0606,2.0606,0,0,1,0,4.1211H22.6658V11.6763h7.5553a4.1169,4.1169,0,0,0,4.07-3.4857,4.1177,4.1177,0,0,0,3.4342-3.4342,4.1169,4.1169,0,0,0,3.4857-4.07A.6888.6888,0,0,0,40.5238,0ZM20.6053,1.3737A1.3777,1.3777,0,0,1,21.979,2.7474a1.3614,1.3614,0,0,1-.4636,1.0217.6525.6525,0,0,0-.2232.5151V21.979H19.9185V4.2842a.6815.6815,0,0,0-.2233-.5151,1.3687,1.3687,0,0,1,.91-2.3954ZM10.99,10.3027A2.7549,2.7549,0,0,1,8.328,8.2421h3.3483a.6869.6869,0,1,0,0-1.3737H7.5553a2.7549,2.7549,0,0,1-2.6615-2.06H8.929a.6869.6869,0,0,0,0-1.3737H4.1211A2.7551,2.7551,0,0,1,1.46,1.3737H12.3632a2.7445,2.7445,0,0,1,2.7474,2.7474A4.1192,4.1192,0,0,0,18.5448,8.182v2.1207ZM7.5553,19.9185A5.5,5.5,0,0,1,13.05,14.4237h1.09l1.657,1.657v.4036H13.05a3.4342,3.4342,0,0,0,0,6.8684h.249A6.1943,6.1943,0,0,0,11.7279,25.25,5.4909,5.4909,0,0,1,7.5553,19.9185ZM19.3862,36.0164a1.6564,1.6564,0,0,1,1.6312-1.6742h.2662v1.657a1.6348,1.6348,0,0,1-.601,1.2621l-.455.3777-.4637-.5494A1.829,1.829,0,0,1,19.3862,36.0164Zm.9616,3.8205h-.12a.1647.1647,0,0,1-.1374-.12.16.16,0,0,1,.0515-.1974l1.4338-1.1934a3.0142,3.0142,0,0,0,1.0818-2.3267v-1.657h1.9145a4.1431,4.1431,0,0,1,.146,1.03A4.4469,4.4469,0,0,1,20.3478,39.8369ZM24.04,32.9685H21.0432a3.0376,3.0376,0,0,0-3.0307,3.0393v.0086a3.0849,3.0849,0,0,0,.6868,1.906l.498.601a1.503,1.503,0,0,0-.4636.97,4.4649,4.4649,0,0,1,1.6913-8.5941H24.04a2.7444,2.7444,0,0,0,2.7474-2.7474,2.6772,2.6772,0,0,0-.3863-1.3737h2.2408a4.6725,4.6725,0,0,1,.206,1.3737A4.8128,4.8128,0,0,1,24.04,32.9685Zm-6.8684-3.4342a1.3737,1.3737,0,1,1,0-2.7474h1.3737v2.7474Zm2.7474,0V26.7869h1.3737v2.7474Zm2.7473,0V26.7869H24.04a1.3737,1.3737,0,0,1,0,2.7474Zm5.4948-6.1816h0a3.4342,3.4342,0,0,0,0-6.8684H25.4132v-.4036l1.657-1.657h1.09a5.4948,5.4948,0,1,1,0,10.99H17.1711a2.7453,2.7453,0,0,0-.4465,5.4433,6.01,6.01,0,0,0-1.4252,1.7257,4.8116,4.8116,0,0,1,1.8717-9.2381h10.99ZM37.09,3.4342H32.2817a.6869.6869,0,1,0,0,1.3737h4.0352a2.7476,2.7476,0,0,1-2.6615,2.0605H29.5343a.6869.6869,0,1,0,0,1.3737h3.3484a2.7477,2.7477,0,0,1-2.6616,2.0606H22.6658V8.182A4.1193,4.1193,0,0,0,26.1,4.1211a2.7444,2.7444,0,0,1,2.7473-2.7474H39.7511A2.7549,2.7549,0,0,1,37.09,3.4342Z"/></svg>