<svg xmlns="http://www.w3.org/2000/svg" viewBox="0 0 55 31.7988"><defs><style>.a{fill:#f9af00;}.b{fill:#fff;}.c{fill:none;stroke:#fff;stroke-linecap:round;stroke-miterlimit:10;stroke-width:2px;}</style></defs><title>add-user</title><rect class="a" width="55" height="31.7988" rx="15.875" ry="15.875"/><path class="b" d="M31.558,15.6673c2.3521.0218,4.2806-2.28,4.307-5.1417s-.5782-5.1871-4.2113-5.2208-4.2807,2.28-4.3071,5.1418S29.2057,15.6455,31.558,15.6673Z"/><path class="b" d="M23.44,23.5038c.0009-.1744-.001-.0491,0,0Z"/><path class="b" d="M39.528,23.7893c.0027-.0478.0038-.3314,0,0Z"/><path class="b" d="M39.5221,23.4437c-.0328-4.9856-.67-6.412-5.6356-7.3572a2.98,2.98,0,0,1-2.34.872,2.9808,2.9808,0,0,1-2.3241-.9153c-4.9282.8437-5.6307,2.2367-5.7662,7.09-.0111.3963-.0147.4171-.0156.371-.0005.0863-.0016.2457-.0042.5238,0,0,1.1621,2.402,8.022,2.4656s8.0661-2.3165,8.0661-2.3165c.0017-.1786.0029-.3029.0039-.3874A3.1718,3.1718,0,0,1,39.5221,23.4437Z"/><line class="c" x1="19.109" y1="6.2893" x2="19.109" y2="13.5794"/><line class="c" x1="22.7485" y1="9.9344" x2="15.4696" y2="9.9344"/></svg>