<svg xmlns="http://www.w3.org/2000/svg" viewBox="0 0 12.5447 13.4318"><defs><style>.a{fill:#515151;}</style></defs><title>admin</title><path class="a" d="M11.41,1.1363a3.8809,3.8809,0,0,0-6.3416,4.2l.0174.0428L.102,10.3633A.3489.3489,0,0,0,0,10.61l0,2.4739a.3481.3481,0,0,0,.3482.3482H1.93l.0021,0a.3425.3425,0,0,0,.3418-.3484c0-.015.0025-2.0507.0025-2.0507l2.0742-.001h0a.3474.3474,0,0,0,.3481-.3479l0-1.5515L6.6563,7.1771a3.9705,3.9705,0,0,0,2.0461.5722,3.8075,3.8075,0,0,0,2.7082-1.1259A3.8853,3.8853,0,0,0,11.41,1.1363ZM11.017,3.68l-.5417.5417a.2785.2785,0,0,1-.3939,0L8.3248,2.465a.2788.2788,0,0,1,0-.3939l.5418-.5417a.2787.2787,0,0,1,.3941,0L11.017,3.2858A.2782.2782,0,0,1,11.017,3.68Z"/></svg>