<svg xmlns="http://www.w3.org/2000/svg" viewBox="0 0 14 15.47"><defs><style>.a{fill:#636363;opacity:0.7;}</style></defs><title>attach</title><path class="a" d="M7.79,1.0658l-7.46,7.46a.52.52,0,0,0,.7348.7348l7.46-7.46A2.5984,2.5984,0,0,1,12.2,5.4749L3.7,13.974A1.5587,1.5587,0,1,1,1.496,11.77L9.5649,3.7008a.52.52,0,1,1,.7348.7348l-7.119,7.119a.52.52,0,0,0,.7347.7348l7.119-7.1185A1.5586,1.5586,0,1,0,8.83,2.9666L.7607,11.035a2.5982,2.5982,0,0,0,3.6749,3.6738L12.9347,6.21A3.6374,3.6374,0,1,0,7.79,1.0658Z"/></svg>