<svg xmlns="http://www.w3.org/2000/svg" viewBox="0 0 17.524 23.8964"><defs><style>.a{fill:#515151;}</style></defs><title>bin</title><path class="a" d="M2.4319,22.2745A2.17,2.17,0,0,0,4.62,23.8964h8.2842a2.17,2.17,0,0,0,2.1879-1.6219L16.7275,6.3724H.7965ZM11.9482,8.7621a.7966.7966,0,0,1,1.5932,0L12.7447,20.71a.7965.7965,0,0,1-1.593,0Zm-3.9827,0a.7965.7965,0,0,1,1.593,0V20.71a.7965.7965,0,0,1-1.593,0ZM4.7793,7.9655a.7964.7964,0,0,1,.7965.7965L6.3724,20.71a.7966.7966,0,0,1-1.5931,0L3.9827,8.7621A.7966.7966,0,0,1,4.7793,7.9655Zm11.47-4.778H12.7447V1.5931C12.7447.3847,12.3539,0,11.1517,0H6.3723a1.3934,1.3934,0,0,0-1.593,1.5931V3.1875H1.2745A1.2362,1.2362,0,0,0,0,4.3829,1.2362,1.2362,0,0,0,1.2745,5.5784H16.25A1.2362,1.2362,0,0,0,17.524,4.3829,1.2362,1.2362,0,0,0,16.25,3.1875Zm-5.0978,0H6.3724V1.5931h4.7793V3.1875Z"/></svg>