<svg xmlns="http://www.w3.org/2000/svg" viewBox="0 0 23.4431 23.4431"><defs><style>.a{fill:#b2b2b2;}</style></defs><title>config</title><path class="a" d="M11.724,7.9825A3.7366,3.7366,0,1,0,15.46,11.719,3.7391,3.7391,0,0,0,11.724,7.9825Z"/><path class="a" d="M22.2431,9.2607l-1.6454-.2791a9.2938,9.2938,0,0,0-.6611-1.5965l.97-1.3566A1.4438,1.4438,0,0,0,20.75,4.1627L19.29,2.7033a1.44,1.44,0,0,0-1.861-.1568l-1.3614.97a9.18,9.18,0,0,0-1.6554-.6806l-.274-1.626A1.447,1.447,0,0,0,12.7083,0H10.6466a1.4466,1.4466,0,0,0-1.43,1.21L8.9325,2.8747a9.0529,9.0529,0,0,0-1.5917.671l-1.3467-.97a1.4461,1.4461,0,0,0-1.8658.1568L2.664,4.1921a1.4494,1.4494,0,0,0-.1566,1.8657L3.4867,7.434a9.0849,9.0849,0,0,0-.6512,1.6014L1.21,9.31A1.4466,1.4466,0,0,0,0,10.74v2.0617a1.4466,1.4466,0,0,0,1.21,1.43l1.665.284a9.0553,9.0553,0,0,0,.671,1.5917l-.9648,1.3419a1.4436,1.4436,0,0,0,.1566,1.8657L4.1968,20.774A1.4377,1.4377,0,0,0,5.22,21.2a1.4214,1.4214,0,0,0,.8373-.2694l1.3762-.98a9.2548,9.2548,0,0,0,1.5476.6366l.2742,1.6455a1.4468,1.4468,0,0,0,1.43,1.21h2.0666a1.4467,1.4467,0,0,0,1.43-1.21l.2791-1.6455a9.2854,9.2854,0,0,0,1.5965-.661l1.3565.97A1.4462,1.4462,0,0,0,19.28,20.74L20.74,19.28a1.45,1.45,0,0,0,.1567-1.8659l-.97-1.3613a9.2166,9.2166,0,0,0,.661-1.5966l1.6456-.2742a1.4466,1.4466,0,0,0,1.21-1.43V10.6906A1.4291,1.4291,0,0,0,22.2431,9.2607ZM11.724,17.5385a5.8194,5.8194,0,1,1,5.8193-5.8195A5.823,5.823,0,0,1,11.724,17.5385Z"/></svg>