<svg xmlns="http://www.w3.org/2000/svg" viewBox="0 0 19.9327 11.0474"><defs><style>.a{fill:#515151;}</style></defs><title>group</title><path class="a" d="M19.6186,9.15a14.2144,14.2144,0,0,0-2.5457-1.6318.0771.0771,0,0,1-.0449-.0734V5.72a.8051.8051,0,0,0,.359-.6731V3.2555a1.6121,1.6121,0,0,0-1.6114-1.6114h-.3835a1.6122,1.6122,0,0,0-1.6114,1.6114V5.0464a.8107.8107,0,0,0,.359.6731V7.4452c0,.0122-.0041.02-.0041.0285.3386.2326.6936.4937,1.04.7792a1.7475,1.7475,0,0,1,.6364,1.3544v1.44h4.12V9.82A.8662.8662,0,0,0,19.6186,9.15Z"/><path class="a" d="M14.7068,8.82a16.6916,16.6916,0,0,0-2.9944-1.9215.0951.0951,0,0,1-.053-.0856V4.7853a.9454.9454,0,0,0,.4242-.7873V1.8929A1.8942,1.8942,0,0,0,10.1907,0H9.742A1.8942,1.8942,0,0,0,7.8491,1.8929v2.101a.9346.9346,0,0,0,.4242.7873V6.8088a.0951.0951,0,0,1-.053.0856A16.4955,16.4955,0,0,0,5.2259,8.8159a1.0106,1.0106,0,0,0-.3712.7874v1.44H15.078v-1.44A1.0085,1.0085,0,0,0,14.7068,8.82Z"/><path class="a" d="M5.793,7.4452V5.72a.8054.8054,0,0,0,.359-.6731V3.2555A1.6122,1.6122,0,0,0,4.5405,1.6441H4.1571A1.6122,1.6122,0,0,0,2.5456,3.2555V5.0464a.8107.8107,0,0,0,.359.6731V7.4452a.086.086,0,0,1-.0448.0734A13.9192,13.9192,0,0,0,.3141,9.15.8662.8662,0,0,0,0,9.82v1.2279H4.12v-1.44a1.7537,1.7537,0,0,1,.6365-1.3544c.3467-.2855.7016-.5466,1.04-.7792C5.797,7.4656,5.793,7.4574,5.793,7.4452Z"/></svg>