<svg xmlns="http://www.w3.org/2000/svg" viewBox="0 0 17.526 14.5334"><defs><style>.a{fill:#515151;}.b{fill:none;stroke:#515151;stroke-linecap:round;stroke-miterlimit:10;stroke-width:2px;}</style></defs><title>not-userleft</title><path class="a" d="M12.0514,7.1075c1.6157.0149,2.94-1.5639,2.9586-3.5265S14.6128.0233,12.1172,0s-2.94,1.564-2.9587,3.5266S10.4356,7.0925,12.0514,7.1075Z"/><path class="a" d="M17.5221,12.441c-.0226-3.4194-.46-4.3977-3.8712-5.046a2.0485,2.0485,0,0,1-1.6078.598,2.0483,2.0483,0,0,1-1.5964-.6277c-3.3852.5787-3.8678,1.5341-3.9609,4.8625-.0076.2718-.01.286-.0107.2545,0,.0591-.0011.1685-.0029.3592,0,0,.7983,1.6474,5.51,1.691s5.5408-1.5887,5.5408-1.5887c.0011-.1226.002-.2078.0026-.2657A2.3072,2.3072,0,0,1,17.5221,12.441Z"/><line class="b" x1="6" y1="3.1755" x2="1" y2="3.1755"/></svg>