<svg xmlns="http://www.w3.org/2000/svg" viewBox="0 0 17.526 14.8579"><defs><style>.a{fill:#515151;}.b{fill:none;stroke:#515151;stroke-linecap:round;stroke-miterlimit:10;stroke-width:2px;}</style></defs><title>not-newuser</title><path class="a" d="M12.0514,7.432c1.6157.015,2.94-1.5639,2.9586-3.5265S14.6128.3479,12.1172.3248s-2.94,1.5639-2.9587,3.5265S10.4356,7.417,12.0514,7.432Z"/><path class="a" d="M17.5221,12.7655c-.0226-3.4194-.46-4.3977-3.8712-5.046a2.0488,2.0488,0,0,1-1.6078.5981A2.0486,2.0486,0,0,1,10.4467,7.69c-3.3852.5787-3.8678,1.5341-3.9609,4.8625-.0076.2718-.01.2861-.0107.2545,0,.0591-.0011.1685-.0029.3592,0,0,.7983,1.6474,5.51,1.691s5.5408-1.5887,5.5408-1.5887c.0011-.1225.002-.2077.0026-.2657A2.3036,2.3036,0,0,1,17.5221,12.7655Z"/><line class="b" x1="3.5" y1="1" x2="3.5" y2="6"/><line class="b" x1="6" y1="3.5" x2="1" y2="3.5"/></svg>