<svg xmlns="http://www.w3.org/2000/svg" viewBox="0 0 16.1079 21.1746"><defs><style>.a{fill:#b2b2b2;}</style></defs><title>profile</title><path class="a" d="M8.1465,0C4.5786,0,3.94,2.2993,3.9141,5.1384c-.0269,2.8595,1.86,5.1951,4.2148,5.2169l.0332,0c2.3389,0,4.25-2.2922,4.2774-5.1382C12.4658,2.3578,11.86.034,8.2246,0L8.1465,0Z"/><path class="a" d="M.0044,18.0966s-.0005.0593,0,.09c0-.0668,0-.09,0-.09Z"/><path class="a" d="M16.1074,18.3131s-.001.04-.0024.1583c.0019-.0306.0029-.1583.0029-.1583Z"/><path class="a" d="M5.7905,10.731C.8584,11.5741.1553,12.966.02,17.8154c-.0088.3064-.0132.3882-.0132.3882a.0588.0588,0,0,1-.0024-.0174c-.0005.0861-.002.2455-.0044.5233,0,0,1.1631,2.4,8.0283,2.4638.09.0009.18.0013.2686.0013,6.6294,0,7.8042-2.316,7.8042-2.316.0019-.1785.0029-.3027.0039-.3871l0,.0065c-.0015,0-.0034-.08-.0054-.3519-.0327-4.982-.67-6.4073-5.64-7.3519a2.9709,2.9709,0,0,1-2.3013.8715h-.041a2.986,2.986,0,0,1-2.3262-.9146Z"/></svg>