<svg xmlns="http://www.w3.org/2000/svg" viewBox="0 0 25.2732 24.2684"><defs><style>.a{fill:none;stroke:#44558a;stroke-miterlimit:10;stroke-width:2px;}</style></defs><title>star</title><path class="a" d="M13.8656,1.764,16.4,6.8988a1.3708,1.3708,0,0,0,1.0319.75l5.6666.8234a1.3705,1.3705,0,0,1,.76,2.3377l-4.1,3.9968a1.37,1.37,0,0,0-.3941,1.2131l.9679,5.6437a1.3705,1.3705,0,0,1-1.9885,1.4448l-5.0684-2.6646a1.3705,1.3705,0,0,0-1.2755,0L6.9305,23.108a1.3706,1.3706,0,0,1-1.9886-1.4448L5.91,16.02a1.37,1.37,0,0,0-.3941-1.2131l-4.1-3.9968a1.3705,1.3705,0,0,1,.76-2.3377l5.6666-.8234a1.37,1.37,0,0,0,1.0319-.75L11.4076,1.764A1.37,1.37,0,0,1,13.8656,1.764Z"/></svg>